<mxfile host="65bd71144e" modified="2021-02-16T23:16:58.908Z" agent="5.0 (X11; Linux x86_64) AppleWebKit/537.36 (KHTML, like Gecko) Code/1.53.2 Chrome/87.0.4280.141 Electron/11.2.1 Safari/537.36" etag="udIspZzL-N6253wCBv3Q" version="14.2.4" type="embed">
    <diagram id="odaEoa0Y9h73cc7l3nhp" name="Page-1">
        <mxGraphModel dx="778" dy="459" grid="1" gridSize="10" guides="1" tooltips="1" connect="1" arrows="1" fold="1" page="1" pageScale="1" pageWidth="850" pageHeight="1100" math="0" shadow="0">
            <root>
                <mxCell id="0"/>
                <mxCell id="1" parent="0"/>
                <mxCell id="55" value="" style="rounded=1;whiteSpace=wrap;html=1;" parent="1" vertex="1">
                    <mxGeometry x="300" y="20" width="360" height="400" as="geometry"/>
                </mxCell>
                <mxCell id="25" style="edgeStyle=orthogonalEdgeStyle;rounded=0;orthogonalLoop=1;jettySize=auto;html=1;" parent="1" source="2" target="3" edge="1">
                    <mxGeometry relative="1" as="geometry"/>
                </mxCell>
                <mxCell id="26" style="edgeStyle=orthogonalEdgeStyle;rounded=0;orthogonalLoop=1;jettySize=auto;html=1;entryX=0.5;entryY=0;entryDx=0;entryDy=0;" parent="1" source="2" target="8" edge="1">
                    <mxGeometry relative="1" as="geometry"/>
                </mxCell>
                <mxCell id="27" style="edgeStyle=orthogonalEdgeStyle;rounded=0;orthogonalLoop=1;jettySize=auto;html=1;" parent="1" source="2" target="6" edge="1">
                    <mxGeometry relative="1" as="geometry"/>
                </mxCell>
                <mxCell id="2" value="Direct Exchange" style="rounded=0;whiteSpace=wrap;html=1;" parent="1" vertex="1">
                    <mxGeometry x="410" y="40" width="160" height="60" as="geometry"/>
                </mxCell>
                <mxCell id="40" style="edgeStyle=orthogonalEdgeStyle;rounded=0;orthogonalLoop=1;jettySize=auto;html=1;entryX=0.5;entryY=0;entryDx=0;entryDy=0;" parent="1" source="3" target="61" edge="1">
                    <mxGeometry relative="1" as="geometry">
                        <mxPoint x="490" y="260" as="targetPoint"/>
                    </mxGeometry>
                </mxCell>
                <mxCell id="3" value="Another user exam queue" style="ellipse;whiteSpace=wrap;html=1;aspect=fixed;" parent="1" vertex="1">
                    <mxGeometry x="450" y="160" width="80" height="80" as="geometry"/>
                </mxCell>
                <mxCell id="45" style="edgeStyle=orthogonalEdgeStyle;rounded=0;orthogonalLoop=1;jettySize=auto;html=1;entryX=0.5;entryY=0;entryDx=0;entryDy=0;" parent="1" source="6" target="42" edge="1">
                    <mxGeometry relative="1" as="geometry"/>
                </mxCell>
                <mxCell id="6" value="User exam queue" style="ellipse;whiteSpace=wrap;html=1;aspect=fixed;" parent="1" vertex="1">
                    <mxGeometry x="370" y="160" width="80" height="80" as="geometry"/>
                </mxCell>
                <mxCell id="39" style="edgeStyle=orthogonalEdgeStyle;rounded=0;orthogonalLoop=1;jettySize=auto;html=1;entryX=0.5;entryY=0;entryDx=0;entryDy=0;" parent="1" source="63" target="34" edge="1">
                    <mxGeometry relative="1" as="geometry"/>
                </mxCell>
                <mxCell id="8" value="Another user exam queue" style="ellipse;whiteSpace=wrap;html=1;aspect=fixed;" parent="1" vertex="1">
                    <mxGeometry x="530" y="160" width="80" height="80" as="geometry"/>
                </mxCell>
                <mxCell id="11" value="Auto-delete when exam finished" style="text;html=1;strokeColor=none;fillColor=none;align=center;verticalAlign=middle;whiteSpace=wrap;rounded=0;" parent="1" vertex="1">
                    <mxGeometry x="610" y="150" width="40" height="90" as="geometry"/>
                </mxCell>
                <mxCell id="13" style="edgeStyle=orthogonalEdgeStyle;rounded=0;orthogonalLoop=1;jettySize=auto;html=1;exitX=1;exitY=0.5;exitDx=0;exitDy=0;entryX=0;entryY=0.5;entryDx=0;entryDy=0;" parent="1" source="12" target="74" edge="1">
                    <mxGeometry relative="1" as="geometry">
                        <mxPoint x="290" y="70" as="sourcePoint"/>
                    </mxGeometry>
                </mxCell>
                <mxCell id="12" value="API" style="rounded=1;whiteSpace=wrap;html=1;" parent="1" vertex="1">
                    <mxGeometry x="120" y="40" width="120" height="60" as="geometry"/>
                </mxCell>
                <mxCell id="14" value="Publish" style="text;html=1;strokeColor=none;fillColor=none;align=center;verticalAlign=middle;whiteSpace=wrap;rounded=0;" parent="1" vertex="1">
                    <mxGeometry x="250" y="50" width="40" height="20" as="geometry"/>
                </mxCell>
                <mxCell id="47" style="edgeStyle=orthogonalEdgeStyle;rounded=0;orthogonalLoop=1;jettySize=auto;html=1;entryX=0;entryY=0.5;entryDx=0;entryDy=0;" parent="1" source="15" target="12" edge="1">
                    <mxGeometry relative="1" as="geometry">
                        <Array as="points">
                            <mxPoint x="50" y="70"/>
                        </Array>
                    </mxGeometry>
                </mxCell>
                <mxCell id="15" value="" style="shape=actor;whiteSpace=wrap;html=1;" parent="1" vertex="1">
                    <mxGeometry x="30" y="240" width="40" height="60" as="geometry"/>
                </mxCell>
                <mxCell id="53" style="edgeStyle=orthogonalEdgeStyle;rounded=0;orthogonalLoop=1;jettySize=auto;html=1;" parent="1" source="28" target="12" edge="1">
                    <mxGeometry relative="1" as="geometry"/>
                </mxCell>
                <mxCell id="28" value="API database" style="shape=datastore;whiteSpace=wrap;html=1;" parent="1" vertex="1">
                    <mxGeometry x="150" y="240" width="60" height="60" as="geometry"/>
                </mxCell>
                <mxCell id="51" style="edgeStyle=orthogonalEdgeStyle;rounded=0;orthogonalLoop=1;jettySize=auto;html=1;entryX=0.5;entryY=1;entryDx=0;entryDy=0;" parent="1" source="34" target="28" edge="1">
                    <mxGeometry relative="1" as="geometry">
                        <Array as="points">
                            <mxPoint x="570" y="400"/>
                            <mxPoint x="180" y="400"/>
                        </Array>
                    </mxGeometry>
                </mxCell>
                <mxCell id="34" value="Consumer process exam" style="shape=hexagon;perimeter=hexagonPerimeter2;whiteSpace=wrap;html=1;fixedSize=1;" parent="1" vertex="1">
                    <mxGeometry x="532.5" y="320" width="75" height="70" as="geometry"/>
                </mxCell>
                <mxCell id="50" style="edgeStyle=orthogonalEdgeStyle;rounded=0;orthogonalLoop=1;jettySize=auto;html=1;entryX=0.5;entryY=1;entryDx=0;entryDy=0;" parent="1" source="35" target="28" edge="1">
                    <mxGeometry relative="1" as="geometry">
                        <mxPoint x="420" y="400" as="targetPoint"/>
                        <Array as="points">
                            <mxPoint x="490" y="400"/>
                            <mxPoint x="180" y="400"/>
                        </Array>
                    </mxGeometry>
                </mxCell>
                <mxCell id="35" value="Consumer process exam" style="shape=hexagon;perimeter=hexagonPerimeter2;whiteSpace=wrap;html=1;fixedSize=1;" parent="1" vertex="1">
                    <mxGeometry x="452.5" y="320" width="75" height="70" as="geometry"/>
                </mxCell>
                <mxCell id="52" style="edgeStyle=orthogonalEdgeStyle;rounded=0;orthogonalLoop=1;jettySize=auto;html=1;entryX=0.5;entryY=1;entryDx=0;entryDy=0;" parent="1" source="36" target="28" edge="1">
                    <mxGeometry relative="1" as="geometry">
                        <mxPoint x="360" y="410" as="targetPoint"/>
                        <Array as="points">
                            <mxPoint x="410" y="400"/>
                            <mxPoint x="180" y="400"/>
                        </Array>
                    </mxGeometry>
                </mxCell>
                <mxCell id="36" value="Consumer process exam" style="shape=hexagon;perimeter=hexagonPerimeter2;whiteSpace=wrap;html=1;fixedSize=1;" parent="1" vertex="1">
                    <mxGeometry x="372.5" y="320" width="75" height="70" as="geometry"/>
                </mxCell>
                <mxCell id="46" style="edgeStyle=orthogonalEdgeStyle;rounded=0;orthogonalLoop=1;jettySize=auto;html=1;" parent="1" source="42" target="36" edge="1">
                    <mxGeometry relative="1" as="geometry"/>
                </mxCell>
                <mxCell id="42" value="Finished exam" style="text;html=1;strokeColor=none;fillColor=none;align=center;verticalAlign=middle;whiteSpace=wrap;rounded=0;" parent="1" vertex="1">
                    <mxGeometry x="390" y="270" width="40" height="20" as="geometry"/>
                </mxCell>
                <mxCell id="57" value="&lt;ul&gt;&lt;li&gt;Start exam&lt;/li&gt;&lt;li&gt;Answer question&lt;/li&gt;&lt;li&gt;Finish exam&lt;/li&gt;&lt;li&gt;Recover exam&lt;/li&gt;&lt;li&gt;Timeout finish&lt;/li&gt;&lt;/ul&gt;" style="text;strokeColor=none;fillColor=none;html=1;whiteSpace=wrap;verticalAlign=middle;overflow=hidden;" parent="1" vertex="1">
                    <mxGeometry x="30" y="100" width="150" height="110" as="geometry"/>
                </mxCell>
                <mxCell id="62" style="edgeStyle=orthogonalEdgeStyle;rounded=0;orthogonalLoop=1;jettySize=auto;html=1;" parent="1" source="61" target="35" edge="1">
                    <mxGeometry relative="1" as="geometry"/>
                </mxCell>
                <mxCell id="61" value="Finished exam" style="text;html=1;strokeColor=none;fillColor=none;align=center;verticalAlign=middle;whiteSpace=wrap;rounded=0;" parent="1" vertex="1">
                    <mxGeometry x="470" y="270" width="40" height="20" as="geometry"/>
                </mxCell>
                <mxCell id="63" value="Finished exam" style="text;html=1;strokeColor=none;fillColor=none;align=center;verticalAlign=middle;whiteSpace=wrap;rounded=0;" parent="1" vertex="1">
                    <mxGeometry x="550" y="270" width="40" height="20" as="geometry"/>
                </mxCell>
                <mxCell id="64" style="edgeStyle=orthogonalEdgeStyle;rounded=0;orthogonalLoop=1;jettySize=auto;html=1;entryX=0.5;entryY=0;entryDx=0;entryDy=0;" parent="1" source="8" target="63" edge="1">
                    <mxGeometry relative="1" as="geometry">
                        <mxPoint x="570" y="240" as="sourcePoint"/>
                        <mxPoint x="570" y="320" as="targetPoint"/>
                    </mxGeometry>
                </mxCell>
                <mxCell id="65" value="Redis" style="shape=datastore;whiteSpace=wrap;html=1;" parent="1" vertex="1">
                    <mxGeometry x="270" y="170" width="60" height="60" as="geometry"/>
                </mxCell>
                <mxCell id="68" value="" style="endArrow=classic;html=1;entryX=0.5;entryY=1;entryDx=0;entryDy=0;exitX=0;exitY=1;exitDx=0;exitDy=0;" parent="1" source="6" target="65" edge="1">
                    <mxGeometry width="50" height="50" relative="1" as="geometry">
                        <mxPoint x="320" y="260" as="sourcePoint"/>
                        <mxPoint x="370" y="210" as="targetPoint"/>
                        <Array as="points">
                            <mxPoint x="340" y="260"/>
                        </Array>
                    </mxGeometry>
                </mxCell>
                <mxCell id="69" value="" style="endArrow=classic;html=1;exitX=0.85;exitY=0.05;exitDx=0;exitDy=0;exitPerimeter=0;entryX=0;entryY=0;entryDx=0;entryDy=0;" parent="1" source="65" target="6" edge="1">
                    <mxGeometry width="50" height="50" relative="1" as="geometry">
                        <mxPoint x="320" y="260" as="sourcePoint"/>
                        <mxPoint x="370" y="210" as="targetPoint"/>
                        <Array as="points">
                            <mxPoint x="350" y="150"/>
                        </Array>
                    </mxGeometry>
                </mxCell>
                <mxCell id="70" value="" style="endArrow=classic;html=1;exitX=0.15;exitY=0.05;exitDx=0;exitDy=0;exitPerimeter=0;entryX=0.992;entryY=0.9;entryDx=0;entryDy=0;entryPerimeter=0;" parent="1" source="65" target="12" edge="1">
                    <mxGeometry width="50" height="50" relative="1" as="geometry">
                        <mxPoint x="320" y="260" as="sourcePoint"/>
                        <mxPoint x="370" y="210" as="targetPoint"/>
                        <Array as="points">
                            <mxPoint x="239" y="140"/>
                        </Array>
                    </mxGeometry>
                </mxCell>
                <mxCell id="71" value="Recover" style="text;html=1;strokeColor=none;fillColor=none;align=center;verticalAlign=middle;whiteSpace=wrap;rounded=0;" parent="1" vertex="1">
                    <mxGeometry x="250" y="130" width="40" height="20" as="geometry"/>
                </mxCell>
                <mxCell id="73" value="Recover action" style="text;html=1;strokeColor=none;fillColor=none;align=center;verticalAlign=middle;whiteSpace=wrap;rounded=0;" parent="1" vertex="1">
                    <mxGeometry x="320" y="260" width="40" height="20" as="geometry"/>
                </mxCell>
                <mxCell id="75" style="edgeStyle=orthogonalEdgeStyle;rounded=0;orthogonalLoop=1;jettySize=auto;html=1;" edge="1" parent="1" source="74" target="2">
                    <mxGeometry relative="1" as="geometry"/>
                </mxCell>
                <mxCell id="74" value="start_exam" style="ellipse;whiteSpace=wrap;html=1;aspect=fixed;" vertex="1" parent="1">
                    <mxGeometry x="320" y="40" width="60" height="60" as="geometry"/>
                </mxCell>
                <mxCell id="79" value="" style="endArrow=none;dashed=1;html=1;dashPattern=1 3;strokeWidth=2;exitX=0.5;exitY=1;exitDx=0;exitDy=0;entryX=0.5;entryY=0;entryDx=0;entryDy=0;" edge="1" parent="1" source="80" target="6">
                    <mxGeometry width="50" height="50" relative="1" as="geometry">
                        <mxPoint x="370" y="260" as="sourcePoint"/>
                        <mxPoint x="420" y="210" as="targetPoint"/>
                    </mxGeometry>
                </mxCell>
                <mxCell id="80" value="Creates" style="text;html=1;strokeColor=none;fillColor=none;align=center;verticalAlign=middle;whiteSpace=wrap;rounded=0;" vertex="1" parent="1">
                    <mxGeometry x="360" y="120" width="40" height="20" as="geometry"/>
                </mxCell>
                <mxCell id="81" value="" style="endArrow=none;dashed=1;html=1;dashPattern=1 3;strokeWidth=2;exitX=0.5;exitY=1;exitDx=0;exitDy=0;entryX=0.5;entryY=0;entryDx=0;entryDy=0;" edge="1" parent="1" source="74" target="80">
                    <mxGeometry width="50" height="50" relative="1" as="geometry">
                        <mxPoint x="350" y="100" as="sourcePoint"/>
                        <mxPoint x="410" y="160" as="targetPoint"/>
                    </mxGeometry>
                </mxCell>
            </root>
        </mxGraphModel>
    </diagram>
</mxfile>